<svg width="330" height="200" viewBox="0 0 33 20" fill="none" xmlns="http://www.w3.org/2000/svg">
<circle cx="1.75" cy="1.75" r="1.7" transform="matrix(-1 0 0 1 14.75 10.9)" fill="#FFEA8A" stroke="black" stroke-width="0.1"/>
<mask id="path-2-inside-1_5_46" fill="white">
<path d="M15.5662 15.6V9.3584H16.8728V14.4626H19.9654V15.6H15.5662ZM23.0683 13.3346C23.0056 13.3973 22.9148 13.4474 22.7957 13.485C22.6766 13.5226 22.5043 13.5633 22.2787 13.6072C21.9278 13.6761 21.6865 13.7639 21.5549 13.8704C21.4233 13.9769 21.3575 14.1305 21.3575 14.331C21.3575 14.6757 21.5549 14.848 21.9497 14.848C22.1064 14.848 22.2505 14.8229 22.3821 14.7728C22.52 14.7164 22.6359 14.6443 22.7299 14.5566C22.8302 14.4626 22.9085 14.3561 22.9649 14.237C23.0276 14.1117 23.0589 13.9801 23.0589 13.8422L23.0683 13.3346ZM23.1529 15.6C23.1153 15.4809 23.0902 15.3431 23.0777 15.1864C22.9336 15.3493 22.7424 15.4809 22.5043 15.5812C22.2662 15.6752 21.9904 15.7222 21.6771 15.7222C21.1444 15.7222 20.7528 15.6063 20.5021 15.3744C20.2577 15.1363 20.1355 14.8292 20.1355 14.4532C20.1355 14.1211 20.1888 13.8579 20.2953 13.6636C20.4018 13.4631 20.5491 13.3064 20.7371 13.1936C20.9251 13.0808 21.1476 12.9993 21.4045 12.9492C21.6677 12.8928 21.9528 12.8427 22.2599 12.7988C22.567 12.7549 22.7738 12.6985 22.8803 12.6296C22.9868 12.5544 23.0401 12.4353 23.0401 12.2724C23.0401 12.122 22.968 12.0061 22.8239 11.9246C22.686 11.8369 22.498 11.793 22.2599 11.793C21.9779 11.793 21.7742 11.8557 21.6489 11.981C21.5298 12.1063 21.4546 12.2724 21.4233 12.4792H20.2859C20.2922 12.2411 20.3298 12.0217 20.3987 11.8212C20.4739 11.6207 20.5898 11.4483 20.7465 11.3042C20.9094 11.1601 21.1194 11.0504 21.3763 10.9752C21.6332 10.8937 21.9466 10.853 22.3163 10.853C22.6798 10.853 22.9868 10.8937 23.2375 10.9752C23.4944 11.0567 23.6981 11.1757 23.8485 11.3324C24.0052 11.4828 24.118 11.6739 24.1869 11.9058C24.2558 12.1314 24.2903 12.3883 24.2903 12.6766V15.6H23.1529Z"/>
</mask>
<path d="M15.5662 15.6V9.3584H16.8728V14.4626H19.9654V15.6H15.5662ZM23.0683 13.3346C23.0056 13.3973 22.9148 13.4474 22.7957 13.485C22.6766 13.5226 22.5043 13.5633 22.2787 13.6072C21.9278 13.6761 21.6865 13.7639 21.5549 13.8704C21.4233 13.9769 21.3575 14.1305 21.3575 14.331C21.3575 14.6757 21.5549 14.848 21.9497 14.848C22.1064 14.848 22.2505 14.8229 22.3821 14.7728C22.52 14.7164 22.6359 14.6443 22.7299 14.5566C22.8302 14.4626 22.9085 14.3561 22.9649 14.237C23.0276 14.1117 23.0589 13.9801 23.0589 13.8422L23.0683 13.3346ZM23.1529 15.6C23.1153 15.4809 23.0902 15.3431 23.0777 15.1864C22.9336 15.3493 22.7424 15.4809 22.5043 15.5812C22.2662 15.6752 21.9904 15.7222 21.6771 15.7222C21.1444 15.7222 20.7528 15.6063 20.5021 15.3744C20.2577 15.1363 20.1355 14.8292 20.1355 14.4532C20.1355 14.1211 20.1888 13.8579 20.2953 13.6636C20.4018 13.4631 20.5491 13.3064 20.7371 13.1936C20.9251 13.0808 21.1476 12.9993 21.4045 12.9492C21.6677 12.8928 21.9528 12.8427 22.2599 12.7988C22.567 12.7549 22.7738 12.6985 22.8803 12.6296C22.9868 12.5544 23.0401 12.4353 23.0401 12.2724C23.0401 12.122 22.968 12.0061 22.8239 11.9246C22.686 11.8369 22.498 11.793 22.2599 11.793C21.9779 11.793 21.7742 11.8557 21.6489 11.981C21.5298 12.1063 21.4546 12.2724 21.4233 12.4792H20.2859C20.2922 12.2411 20.3298 12.0217 20.3987 11.8212C20.4739 11.6207 20.5898 11.4483 20.7465 11.3042C20.9094 11.1601 21.1194 11.0504 21.3763 10.9752C21.6332 10.8937 21.9466 10.853 22.3163 10.853C22.6798 10.853 22.9868 10.8937 23.2375 10.9752C23.4944 11.0567 23.6981 11.1757 23.8485 11.3324C24.0052 11.4828 24.118 11.6739 24.1869 11.9058C24.2558 12.1314 24.2903 12.3883 24.2903 12.6766V15.6H23.1529Z" fill="#FFEA8A"/>
<path d="M15.5662 15.6H15.4662V15.7H15.5662V15.6ZM15.5662 9.3584V9.2584H15.4662V9.3584H15.5662ZM16.8728 9.3584H16.9728V9.2584H16.8728V9.3584ZM16.8728 14.4626H16.7728V14.5626H16.8728V14.4626ZM19.9654 14.4626H20.0654V14.3626H19.9654V14.4626ZM19.9654 15.6V15.7H20.0654V15.6H19.9654ZM15.5662 15.6H15.6662V9.3584H15.5662H15.4662V15.6H15.5662ZM15.5662 9.3584V9.4584H16.8728V9.3584V9.2584H15.5662V9.3584ZM16.8728 9.3584H16.7728V14.4626H16.8728H16.9728V9.3584H16.8728ZM16.8728 14.4626V14.5626H19.9654V14.4626V14.3626H16.8728V14.4626ZM19.9654 14.4626H19.8654V15.6H19.9654H20.0654V14.4626H19.9654ZM19.9654 15.6V15.5H15.5662V15.6V15.7H19.9654V15.6ZM23.0683 13.3346L23.1683 13.3365L23.1729 13.0886L22.9976 13.2639L23.0683 13.3346ZM22.7957 13.485L22.7656 13.3896H22.7656L22.7957 13.485ZM22.2787 13.6072L22.2596 13.509L22.2594 13.5091L22.2787 13.6072ZM21.5549 13.8704L21.492 13.7927V13.7927L21.5549 13.8704ZM22.3821 14.7728L22.4177 14.8663L22.42 14.8654L22.3821 14.7728ZM22.7299 14.5566L22.7981 14.6297L22.7983 14.6296L22.7299 14.5566ZM22.9649 14.237L22.8754 14.1923L22.8745 14.1942L22.9649 14.237ZM23.0589 13.8422L22.9589 13.8403V13.8422H23.0589ZM23.1529 15.6L23.0575 15.6301L23.0796 15.7H23.1529V15.6ZM23.0777 15.1864L23.1774 15.1784L23.1586 14.944L23.0028 15.1201L23.0777 15.1864ZM22.5043 15.5812L22.541 15.6742L22.5431 15.6734L22.5043 15.5812ZM20.5021 15.3744L20.4323 15.446L20.4342 15.4478L20.5021 15.3744ZM20.2953 13.6636L20.383 13.7117L20.3836 13.7105L20.2953 13.6636ZM20.7371 13.1936L20.7885 13.2793V13.2793L20.7371 13.1936ZM21.4045 12.9492L21.4236 13.0474L21.4254 13.047L21.4045 12.9492ZM22.2599 12.7988L22.2457 12.6998V12.6998L22.2599 12.7988ZM22.8803 12.6296L22.9347 12.7136L22.938 12.7113L22.8803 12.6296ZM22.8239 11.9246L22.7701 12.0091L22.7747 12.0117L22.8239 11.9246ZM21.6489 11.981L21.5782 11.9103L21.5764 11.9121L21.6489 11.981ZM21.4233 12.4792V12.5792H21.5093L21.5222 12.4942L21.4233 12.4792ZM20.2859 12.4792L20.1859 12.4766L20.1832 12.5792H20.2859V12.4792ZM20.3987 11.8212L20.305 11.7861L20.3041 11.7887L20.3987 11.8212ZM20.7465 11.3042L20.6802 11.2293L20.6788 11.2306L20.7465 11.3042ZM21.3763 10.9752L21.4044 11.0712L21.4065 11.0705L21.3763 10.9752ZM23.2375 10.9752L23.2066 11.0703L23.2073 11.0705L23.2375 10.9752ZM23.8485 11.3324L23.7763 11.4017L23.7792 11.4045L23.8485 11.3324ZM24.1869 11.9058L24.091 11.9343L24.0913 11.935L24.1869 11.9058ZM24.2903 15.6V15.7H24.3903V15.6H24.2903ZM23.0683 13.3346L22.9976 13.2639C22.9499 13.3115 22.8752 13.355 22.7656 13.3896L22.7957 13.485L22.8258 13.5804C22.9543 13.5398 23.0613 13.483 23.139 13.4053L23.0683 13.3346ZM22.7957 13.485L22.7656 13.3896C22.652 13.4255 22.484 13.4654 22.2596 13.509L22.2787 13.6072L22.2978 13.7054C22.5246 13.6613 22.7013 13.6197 22.8258 13.5804L22.7957 13.485ZM22.2787 13.6072L22.2594 13.5091C21.9065 13.5784 21.644 13.6696 21.492 13.7927L21.5549 13.8704L21.6178 13.9481C21.729 13.8581 21.949 13.7739 22.298 13.7053L22.2787 13.6072ZM21.5549 13.8704L21.492 13.7927C21.3325 13.9218 21.2575 14.1065 21.2575 14.331H21.3575H21.4575C21.4575 14.1544 21.5141 14.0321 21.6178 13.9481L21.5549 13.8704ZM21.3575 14.331H21.2575C21.2575 14.5225 21.313 14.6834 21.4398 14.7941C21.564 14.9025 21.74 14.948 21.9497 14.948V14.848V14.748C21.7646 14.748 21.6445 14.7073 21.5713 14.6434C21.5007 14.5818 21.4575 14.4841 21.4575 14.331H21.3575ZM21.9497 14.848V14.948C22.1172 14.948 22.2735 14.9212 22.4177 14.8662L22.3821 14.7728L22.3465 14.6793C22.2275 14.7247 22.0956 14.748 21.9497 14.748V14.848ZM22.3821 14.7728L22.42 14.8654C22.5673 14.8051 22.694 14.7269 22.7981 14.6297L22.7299 14.5566L22.6617 14.4835C22.5778 14.5618 22.4726 14.6277 22.3442 14.6802L22.3821 14.7728ZM22.7299 14.5566L22.7983 14.6296C22.9073 14.5273 22.9933 14.4107 23.0553 14.2798L22.9649 14.237L22.8745 14.1942C22.8237 14.3014 22.753 14.3978 22.6615 14.4836L22.7299 14.5566ZM22.9649 14.237L23.0543 14.2817C23.1238 14.1427 23.1589 13.9959 23.1589 13.8422H23.0589H22.9589C22.9589 13.9643 22.9313 14.0806 22.8754 14.1923L22.9649 14.237ZM23.0589 13.8422L23.1589 13.844L23.1683 13.3365L23.0683 13.3346L22.9683 13.3327L22.9589 13.8403L23.0589 13.8422ZM23.1529 15.6L23.2482 15.5699C23.2134 15.4596 23.1894 15.3294 23.1774 15.1784L23.0777 15.1864L22.978 15.1944C22.991 15.3567 23.0172 15.5023 23.0575 15.6301L23.1529 15.6ZM23.0777 15.1864L23.0028 15.1201C22.8703 15.2699 22.6924 15.3935 22.4655 15.489L22.5043 15.5812L22.5431 15.6734C22.7925 15.5684 22.9968 15.4287 23.1526 15.2527L23.0777 15.1864ZM22.5043 15.5812L22.4676 15.4882C22.2434 15.5767 21.9806 15.6222 21.6771 15.6222V15.7222V15.8222C22.0003 15.8222 22.2889 15.7737 22.541 15.6742L22.5043 15.5812ZM21.6771 15.7222V15.6222C21.156 15.6222 20.7942 15.5084 20.57 15.301L20.5021 15.3744L20.4342 15.4478C20.7113 15.7042 21.1328 15.8222 21.6771 15.8222V15.7222ZM20.5021 15.3744L20.5719 15.3028C20.3489 15.0855 20.2355 14.8053 20.2355 14.4532H20.1355H20.0355C20.0355 14.8531 20.1665 15.1871 20.4323 15.446L20.5021 15.3744ZM20.1355 14.4532H20.2355C20.2355 14.1301 20.2876 13.8857 20.383 13.7117L20.2953 13.6636L20.2076 13.6155C20.0899 13.8301 20.0355 14.112 20.0355 14.4532H20.1355ZM20.2953 13.6636L20.3836 13.7105C20.4819 13.5254 20.6167 13.3825 20.7885 13.2793L20.7371 13.1936L20.6856 13.1078C20.4815 13.2303 20.3217 13.4007 20.207 13.6167L20.2953 13.6636ZM20.7371 13.1936L20.7885 13.2793C20.9648 13.1736 21.176 13.0957 21.4236 13.0473L21.4045 12.9492L21.3853 12.851C21.1192 12.903 20.8853 12.988 20.6856 13.1078L20.7371 13.1936ZM21.4045 12.9492L21.4254 13.047C21.6861 12.9911 21.9689 12.9414 22.274 12.8978L22.2599 12.7988L22.2457 12.6998C21.9367 12.7439 21.6493 12.7945 21.3835 12.8514L21.4045 12.9492ZM22.2599 12.7988L22.274 12.8978C22.5804 12.854 22.8076 12.7957 22.9346 12.7136L22.8803 12.6296L22.826 12.5456C22.7399 12.6013 22.5535 12.6558 22.2457 12.6998L22.2599 12.7988ZM22.8803 12.6296L22.938 12.7113C23.0777 12.6127 23.1401 12.4587 23.1401 12.2724H23.0401H22.9401C22.9401 12.4119 22.896 12.4961 22.8226 12.5479L22.8803 12.6296ZM23.0401 12.2724H23.1401C23.1401 12.0817 23.0448 11.9346 22.8731 11.8375L22.8239 11.9246L22.7747 12.0117C22.8913 12.0776 22.9401 12.1623 22.9401 12.2724H23.0401ZM22.8239 11.9246L22.8776 11.8402C22.7179 11.7386 22.5088 11.693 22.2599 11.693V11.793V11.893C22.4872 11.893 22.6541 11.9351 22.7702 12.009L22.8239 11.9246ZM22.2599 11.793V11.693C21.9665 11.693 21.7308 11.7577 21.5782 11.9103L21.6489 11.981L21.7196 12.0517C21.8177 11.9536 21.9893 11.893 22.2599 11.893V11.793ZM21.6489 11.981L21.5764 11.9121C21.4405 12.0552 21.3582 12.2415 21.3244 12.4642L21.4233 12.4792L21.5222 12.4942C21.5511 12.3033 21.6192 12.1575 21.7214 12.0499L21.6489 11.981ZM21.4233 12.4792V12.3792H20.2859V12.4792V12.5792H21.4233V12.4792ZM20.2859 12.4792L20.3859 12.4818C20.3919 12.2526 20.428 12.0435 20.4933 11.8537L20.3987 11.8212L20.3041 11.7887C20.2315 12 20.1924 12.2295 20.1859 12.4766L20.2859 12.4792ZM20.3987 11.8212L20.4923 11.8563C20.562 11.6704 20.6691 11.5112 20.8142 11.3778L20.7465 11.3042L20.6788 11.2306C20.5105 11.3854 20.3857 11.571 20.3051 11.7861L20.3987 11.8212ZM20.7465 11.3042L20.8127 11.3791C20.9624 11.2467 21.1584 11.1432 21.4044 11.0712L21.3763 10.9752L21.3482 10.8792C21.0803 10.9576 20.8564 11.0734 20.6802 11.2293L20.7465 11.3042ZM21.3763 10.9752L21.4065 11.0705C21.6508 10.9931 21.9533 10.953 22.3163 10.953V10.853V10.753C21.9398 10.753 21.6156 10.7944 21.3461 10.8799L21.3763 10.9752ZM22.3163 10.853V10.953C22.6729 10.953 22.9689 10.993 23.2066 11.0703L23.2375 10.9752L23.2684 10.8801C23.0048 10.7944 22.6866 10.753 22.3163 10.753V10.853ZM23.2375 10.9752L23.2073 11.0705C23.4521 11.1481 23.64 11.2596 23.7763 11.4017L23.8485 11.3324L23.9206 11.2631C23.7562 11.0919 23.5368 10.9652 23.2677 10.8799L23.2375 10.9752ZM23.8485 11.3324L23.7792 11.4045C23.922 11.5416 24.0265 11.7171 24.091 11.9343L24.1869 11.9058L24.2827 11.8773C24.2094 11.6308 24.0883 11.424 23.9177 11.2603L23.8485 11.3324ZM24.1869 11.9058L24.0913 11.935C24.1567 12.1493 24.1903 12.3961 24.1903 12.6766H24.2903H24.3903C24.3903 12.3805 24.3549 12.1135 24.2825 11.8766L24.1869 11.9058ZM24.2903 12.6766H24.1903V15.6H24.2903H24.3903V12.6766H24.2903ZM24.2903 15.6V15.5H23.1529V15.6V15.7H24.2903V15.6Z" fill="black" mask="url(#path-2-inside-1_5_46)"/>
<mask id="path-4-inside-2_5_46" fill="white">
<path d="M27.1718 14.6514C27.505 14.6514 27.777 14.512 27.9878 14.2332C28.1986 13.9476 28.304 13.5804 28.304 13.1316C28.304 12.098 27.9232 11.5812 27.1616 11.5812C26.4204 11.5812 26.0498 12.1252 26.0498 13.2132C26.0498 13.6416 26.1552 13.9884 26.366 14.2536C26.5836 14.5188 26.8522 14.6514 27.1718 14.6514ZM24.7952 15.6V8.7456H26.1008V11.2344C26.4748 10.7108 26.9712 10.449 27.59 10.449C27.9164 10.449 28.2054 10.5136 28.457 10.6428C28.7154 10.7652 28.933 10.942 29.1098 11.1732C29.2866 11.4044 29.4192 11.6798 29.5076 11.9994C29.6028 12.3122 29.6504 12.659 29.6504 13.0398C29.6504 13.4614 29.596 13.8388 29.4872 14.172C29.3784 14.5052 29.2288 14.7874 29.0384 15.0186C28.848 15.2498 28.6168 15.4266 28.3448 15.549C28.0796 15.6714 27.7906 15.7326 27.4778 15.7326C26.8522 15.7326 26.3864 15.4844 26.0804 14.988L26.0702 15.6H24.7952Z"/>
</mask>
<path d="M27.1718 14.6514C27.505 14.6514 27.777 14.512 27.9878 14.2332C28.1986 13.9476 28.304 13.5804 28.304 13.1316C28.304 12.098 27.9232 11.5812 27.1616 11.5812C26.4204 11.5812 26.0498 12.1252 26.0498 13.2132C26.0498 13.6416 26.1552 13.9884 26.366 14.2536C26.5836 14.5188 26.8522 14.6514 27.1718 14.6514ZM24.7952 15.6V8.7456H26.1008V11.2344C26.4748 10.7108 26.9712 10.449 27.59 10.449C27.9164 10.449 28.2054 10.5136 28.457 10.6428C28.7154 10.7652 28.933 10.942 29.1098 11.1732C29.2866 11.4044 29.4192 11.6798 29.5076 11.9994C29.6028 12.3122 29.6504 12.659 29.6504 13.0398C29.6504 13.4614 29.596 13.8388 29.4872 14.172C29.3784 14.5052 29.2288 14.7874 29.0384 15.0186C28.848 15.2498 28.6168 15.4266 28.3448 15.549C28.0796 15.6714 27.7906 15.7326 27.4778 15.7326C26.8522 15.7326 26.3864 15.4844 26.0804 14.988L26.0702 15.6H24.7952Z" fill="#FFEA8A"/>
<path d="M27.9878 14.2332L28.0676 14.2935L28.0683 14.2926L27.9878 14.2332ZM26.366 14.2536L26.2877 14.3158L26.2887 14.317L26.366 14.2536ZM24.7952 15.6H24.6952V15.7H24.7952V15.6ZM24.7952 8.7456V8.6456H24.6952V8.7456H24.7952ZM26.1008 8.7456H26.2008V8.6456H26.1008V8.7456ZM26.1008 11.2344H26.0008V11.5464L26.1822 11.2925L26.1008 11.2344ZM28.457 10.6428L28.4113 10.7318L28.4142 10.7332L28.457 10.6428ZM29.1098 11.1732L29.1892 11.1125V11.1125L29.1098 11.1732ZM29.5076 11.9994L29.4112 12.0261L29.4119 12.0285L29.5076 11.9994ZM29.4872 14.172L29.5823 14.203V14.203L29.4872 14.172ZM28.3448 15.549L28.3038 15.4578L28.3029 15.4582L28.3448 15.549ZM26.0804 14.988L26.1655 14.9355L25.9861 14.6445L25.9804 14.9863L26.0804 14.988ZM26.0702 15.6V15.7H26.1685L26.1702 15.6017L26.0702 15.6ZM27.1718 14.6514V14.7514C27.5381 14.7514 27.8389 14.5959 28.0676 14.2935L27.9878 14.2332L27.908 14.1729C27.7151 14.4281 27.4719 14.5514 27.1718 14.5514V14.6514ZM27.9878 14.2332L28.0683 14.2926C28.2948 13.9857 28.404 13.5961 28.404 13.1316H28.304H28.204C28.204 13.5647 28.1024 13.9095 27.9073 14.1738L27.9878 14.2332ZM28.304 13.1316H28.404C28.404 12.6055 28.3076 12.1927 28.0989 11.9095C27.886 11.6205 27.5675 11.4812 27.1616 11.4812V11.5812V11.6812C27.5173 11.6812 27.77 11.8003 27.9379 12.0281C28.11 12.2617 28.204 12.6241 28.204 13.1316H28.304ZM27.1616 11.5812V11.4812C26.7628 11.4812 26.4516 11.6298 26.2451 11.9329C26.0433 12.2291 25.9498 12.661 25.9498 13.2132H26.0498H26.1498C26.1498 12.6774 26.2416 12.2933 26.4104 12.0455C26.5745 11.8046 26.8192 11.6812 27.1616 11.6812V11.5812ZM26.0498 13.2132H25.9498C25.9498 13.6581 26.0595 14.0287 26.2877 14.3158L26.366 14.2536L26.4443 14.1914C26.2509 13.9481 26.1498 13.6251 26.1498 13.2132H26.0498ZM26.366 14.2536L26.2887 14.317C26.5237 14.6034 26.8198 14.7514 27.1718 14.7514V14.6514V14.5514C26.8846 14.5514 26.6435 14.4342 26.4433 14.1902L26.366 14.2536ZM24.7952 15.6H24.8952V8.7456H24.7952H24.6952V15.6H24.7952ZM24.7952 8.7456V8.8456H26.1008V8.7456V8.6456H24.7952V8.7456ZM26.1008 8.7456H26.0008V11.2344H26.1008H26.2008V8.7456H26.1008ZM26.1008 11.2344L26.1822 11.2925C26.5383 10.794 27.005 10.549 27.59 10.549V10.449V10.349C26.9374 10.349 26.4113 10.6276 26.0194 11.1763L26.1008 11.2344ZM27.59 10.449V10.549C27.903 10.549 28.1759 10.6109 28.4113 10.7318L28.457 10.6428L28.5027 10.5538C28.2349 10.4163 27.9298 10.349 27.59 10.349V10.449ZM28.457 10.6428L28.4142 10.7332C28.6579 10.8486 28.8631 11.0152 29.0304 11.2339L29.1098 11.1732L29.1892 11.1125C29.0029 10.8688 28.7729 10.6818 28.4998 10.5524L28.457 10.6428ZM29.1098 11.1732L29.0304 11.2339C29.1984 11.4537 29.3258 11.7171 29.4112 12.0261L29.5076 11.9994L29.604 11.9727C29.5126 11.6425 29.3748 11.3551 29.1892 11.1125L29.1098 11.1732ZM29.5076 11.9994L29.4119 12.0285C29.5038 12.3305 29.5504 12.6673 29.5504 13.0398H29.6504H29.7504C29.7504 12.6507 29.7018 12.2939 29.6033 11.9703L29.5076 11.9994ZM29.6504 13.0398H29.5504C29.5504 13.4529 29.4971 13.8196 29.3921 14.141L29.4872 14.172L29.5823 14.203C29.6949 13.858 29.7504 13.4699 29.7504 13.0398H29.6504ZM29.4872 14.172L29.3921 14.141C29.2866 14.4643 29.1424 14.735 28.9612 14.955L29.0384 15.0186L29.1156 15.0822C29.3152 14.8398 29.4702 14.5461 29.5823 14.203L29.4872 14.172ZM29.0384 15.0186L28.9612 14.955C28.7805 15.1744 28.5617 15.3417 28.3038 15.4578L28.3448 15.549L28.3858 15.6402C28.6719 15.5115 28.9155 15.3252 29.1156 15.0822L29.0384 15.0186ZM28.3448 15.549L28.3029 15.4582C28.0517 15.5741 27.7772 15.6326 27.4778 15.6326V15.7326V15.8326C27.804 15.8326 28.1075 15.7687 28.3867 15.6398L28.3448 15.549ZM27.4778 15.7326V15.6326C26.8839 15.6326 26.4518 15.3999 26.1655 14.9355L26.0804 14.988L25.9953 15.0405C26.321 15.5689 26.8205 15.8326 27.4778 15.8326V15.7326ZM26.0804 14.988L25.9804 14.9863L25.9702 15.5983L26.0702 15.6L26.1702 15.6017L26.1804 14.9897L26.0804 14.988ZM26.0702 15.6V15.5H24.7952V15.6V15.7H26.0702V15.6Z" fill="black" mask="url(#path-4-inside-2_5_46)"/>
<path d="M3.33 8.87C3.65 8.87 3.9 8.78 4.08 8.6C4.26 8.42 4.35 8.19333 4.35 7.92C4.35 7.62667 4.26 7.41333 4.08 7.28C3.90667 7.14667 3.66333 7.08 3.35 7.08H1.57V8.87H3.33ZM1.57 4.51V5.95H3.32C3.88 5.95 4.16 5.71 4.16 5.23C4.16 4.97667 4.08667 4.79333 3.94 4.68C3.8 4.56667 3.56667 4.51 3.24 4.51H1.57ZM0.23 10V3.36H3.5C4.15333 3.36 4.65 3.52333 4.99 3.85C5.33 4.17 5.5 4.61 5.5 5.17C5.5 5.45667 5.42333 5.71333 5.27 5.94C5.11667 6.16 4.92333 6.31667 4.69 6.41C4.83 6.46333 4.96 6.53333 5.08 6.62C5.20667 6.7 5.31333 6.80667 5.4 6.94C5.49333 7.06667 5.56667 7.22 5.62 7.4C5.67333 7.57333 5.7 7.78 5.7 8.02C5.7 8.62667 5.49667 9.11 5.09 9.47C4.68333 9.82333 4.06 10 3.22 10H0.23ZM8.95313 7.59C8.88646 7.65667 8.78979 7.71 8.66313 7.75C8.53646 7.79 8.35313 7.83333 8.11313 7.88C7.73979 7.95333 7.48313 8.04667 7.34313 8.16C7.20313 8.27333 7.13313 8.43667 7.13313 8.65C7.13313 9.01667 7.34313 9.2 7.76313 9.2C7.92979 9.2 8.08313 9.17333 8.22313 9.12C8.36979 9.06 8.49313 8.98333 8.59313 8.89C8.69979 8.79 8.78313 8.67667 8.84313 8.55C8.90979 8.41667 8.94313 8.27667 8.94313 8.13L8.95313 7.59ZM9.04313 10C9.00313 9.87333 8.97646 9.72667 8.96313 9.56C8.80979 9.73333 8.60646 9.87333 8.35313 9.98C8.09979 10.08 7.80646 10.13 7.47313 10.13C6.90646 10.13 6.48979 10.0067 6.22313 9.76C5.96313 9.50667 5.83313 9.18 5.83313 8.78C5.83313 8.42667 5.88979 8.14667 6.00313 7.94C6.11646 7.72667 6.27313 7.56 6.47313 7.44C6.67313 7.32 6.90979 7.23333 7.18313 7.18C7.46313 7.12 7.76646 7.06667 8.09313 7.02C8.41979 6.97333 8.63979 6.91333 8.75313 6.84C8.86646 6.76 8.92313 6.63333 8.92313 6.46C8.92313 6.3 8.84646 6.17667 8.69313 6.09C8.54646 5.99667 8.34646 5.95 8.09313 5.95C7.79313 5.95 7.57646 6.01667 7.44313 6.15C7.31646 6.28333 7.23646 6.46 7.20313 6.68H5.99313C5.99979 6.42667 6.03979 6.19333 6.11313 5.98C6.19313 5.76667 6.31646 5.58333 6.48313 5.43C6.65646 5.27667 6.87979 5.16 7.15313 5.08C7.42646 4.99333 7.75979 4.95 8.15313 4.95C8.53979 4.95 8.86646 4.99333 9.13313 5.08C9.40646 5.16667 9.62313 5.29333 9.78313 5.46C9.94979 5.62 10.0698 5.82333 10.1431 6.07C10.2165 6.31 10.2531 6.58333 10.2531 6.89V10H9.04313ZM13.7976 10L12.7176 7.79L12.0876 8.44V10H10.7776V3.28H12.0876V6.95L13.7076 5.08H15.2976L13.6476 6.89L15.2576 10H13.7976ZM18.573 10L17.493 7.79L16.863 8.44V10H15.553V3.28H16.863V6.95L18.483 5.08H20.073L18.423 6.89L20.033 10H18.573ZM23.0605 7.06C23.0539 6.88 23.0205 6.72333 22.9605 6.59C22.9072 6.45 22.8339 6.33667 22.7405 6.25C22.6472 6.15667 22.5405 6.09 22.4205 6.05C22.3005 6.00333 22.1772 5.98 22.0505 5.98C21.7905 5.98 21.5639 6.07667 21.3705 6.27C21.1839 6.45667 21.0772 6.72 21.0505 7.06H23.0605ZM21.0105 7.88C21.0305 8.25333 21.1372 8.55 21.3305 8.77C21.5305 8.99 21.7905 9.1 22.1105 9.1C22.3239 9.1 22.5105 9.05333 22.6705 8.96C22.8372 8.86 22.9439 8.72333 22.9905 8.55H24.3305C24.1772 9.05667 23.9105 9.44667 23.5305 9.72C23.1505 9.99333 22.6972 10.13 22.1705 10.13C20.5305 10.13 19.7105 9.23667 19.7105 7.45C19.7105 7.07 19.7639 6.72667 19.8705 6.42C19.9772 6.11333 20.1305 5.85 20.3305 5.63C20.5372 5.41 20.7872 5.24333 21.0805 5.13C21.3739 5.01 21.7105 4.95 22.0905 4.95C22.8505 4.95 23.4239 5.19333 23.8105 5.68C24.2039 6.16667 24.4005 6.9 24.4005 7.88H21.0105ZM24.801 10V5.08H26.021V5.67C26.1277 5.50333 26.2377 5.37333 26.351 5.28C26.471 5.18667 26.591 5.11667 26.711 5.07C26.8377 5.01667 26.9643 4.98333 27.091 4.97C27.2177 4.95667 27.3477 4.95 27.481 4.95H27.651V6.28C27.531 6.26 27.411 6.25 27.291 6.25C26.4977 6.25 26.101 6.64667 26.101 7.44V10H24.801ZM30.7981 6.57C30.7648 6.34333 30.6781 6.18 30.5381 6.08C30.4048 5.97333 30.1981 5.92 29.9181 5.92C29.6515 5.92 29.4481 5.95333 29.3081 6.02C29.1748 6.08 29.1081 6.18667 29.1081 6.34C29.1081 6.47333 29.1748 6.58 29.3081 6.66C29.4481 6.74 29.6481 6.81667 29.9081 6.89C30.3348 7.01 30.6948 7.11333 30.9881 7.2C31.2815 7.28 31.5148 7.37667 31.6881 7.49C31.8681 7.60333 31.9948 7.74667 32.0681 7.92C32.1481 8.08667 32.1881 8.31333 32.1881 8.6C32.1881 9.04 32.0048 9.40667 31.6381 9.7C31.2715 9.98667 30.7281 10.13 30.0081 10.13C29.6548 10.13 29.3348 10.09 29.0481 10.01C28.7615 9.93 28.5148 9.81667 28.3081 9.67C28.1081 9.51667 27.9515 9.33667 27.8381 9.13C27.7315 8.91667 27.6748 8.68 27.6681 8.42H29.0081C29.0081 8.65333 29.0981 8.83333 29.2781 8.96C29.4648 9.08667 29.7048 9.15 29.9981 9.15C30.2448 9.15 30.4548 9.11333 30.6281 9.04C30.8081 8.96 30.8981 8.84 30.8981 8.68C30.8981 8.5 30.8315 8.37 30.6981 8.29C30.5715 8.21 30.3748 8.14 30.1081 8.08C29.6281 7.97333 29.2415 7.86333 28.9481 7.75C28.6548 7.63 28.4248 7.5 28.2581 7.36C28.0981 7.22 27.9881 7.06667 27.9281 6.9C27.8748 6.73333 27.8481 6.54667 27.8481 6.34C27.8481 6.15333 27.8848 5.97667 27.9581 5.81C28.0381 5.64333 28.1615 5.49667 28.3281 5.37C28.4948 5.24333 28.7115 5.14333 28.9781 5.07C29.2448 4.99 29.5715 4.95 29.9581 4.95C30.6648 4.95 31.1815 5.09333 31.5081 5.38C31.8348 5.66667 32.0148 6.06333 32.0481 6.57H30.7981Z" fill="black"/>
</svg>
